<mxfile host="Electron" modified="2024-08-22T18:05:30.881Z" agent="Mozilla/5.0 (Macintosh; Intel Mac OS X 10_15_7) AppleWebKit/537.36 (KHTML, like Gecko) draw.io/21.3.7 Chrome/112.0.5615.204 Electron/24.5.0 Safari/537.36" etag="dt2TfuSjYmZVDXZkGk2g" version="21.3.7" type="device">
  <diagram name="Page-1" id="DbSRKLHDOsufHShMD5hX">
    <mxGraphModel dx="2284" dy="854" grid="1" gridSize="10" guides="1" tooltips="1" connect="1" arrows="1" fold="1" page="1" pageScale="1" pageWidth="850" pageHeight="1100" math="0" shadow="0">
      <root>
        <mxCell id="0" />
        <mxCell id="1" parent="0" />
        <mxCell id="5VA00lFqFto38derzU0V-1" value="&lt;b&gt;AWS Step Functions Workflow&lt;/b&gt;" style="points=[[0,0],[0.25,0],[0.5,0],[0.75,0],[1,0],[1,0.25],[1,0.5],[1,0.75],[1,1],[0.75,1],[0.5,1],[0.25,1],[0,1],[0,0.75],[0,0.5],[0,0.25]];outlineConnect=0;gradientColor=none;html=1;whiteSpace=wrap;fontSize=12;fontStyle=0;container=1;pointerEvents=0;collapsible=0;recursiveResize=0;shape=mxgraph.aws4.group;grIcon=mxgraph.aws4.group_aws_step_functions_workflow;strokeColor=#CD2264;fillColor=none;verticalAlign=top;align=left;spacingLeft=30;fontColor=#CD2264;dashed=0;" parent="1" vertex="1">
          <mxGeometry x="30" y="230" width="700" height="170" as="geometry" />
        </mxCell>
        <mxCell id="5VA00lFqFto38derzU0V-37" style="edgeStyle=orthogonalEdgeStyle;rounded=0;orthogonalLoop=1;jettySize=auto;html=1;exitX=1;exitY=0.5;exitDx=0;exitDy=0;exitPerimeter=0;entryX=0;entryY=0.5;entryDx=0;entryDy=0;entryPerimeter=0;" parent="5VA00lFqFto38derzU0V-1" source="5VA00lFqFto38derzU0V-4" target="5VA00lFqFto38derzU0V-10" edge="1">
          <mxGeometry relative="1" as="geometry" />
        </mxCell>
        <mxCell id="5VA00lFqFto38derzU0V-4" value="" style="sketch=0;points=[[0,0,0],[0.25,0,0],[0.5,0,0],[0.75,0,0],[1,0,0],[0,1,0],[0.25,1,0],[0.5,1,0],[0.75,1,0],[1,1,0],[0,0.25,0],[0,0.5,0],[0,0.75,0],[1,0.25,0],[1,0.5,0],[1,0.75,0]];outlineConnect=0;fontColor=#232F3E;gradientColor=#F78E04;gradientDirection=north;fillColor=#D05C17;strokeColor=#ffffff;dashed=0;verticalLabelPosition=bottom;verticalAlign=top;align=center;html=1;fontSize=12;fontStyle=0;aspect=fixed;shape=mxgraph.aws4.resourceIcon;resIcon=mxgraph.aws4.lambda;" parent="5VA00lFqFto38derzU0V-1" vertex="1">
          <mxGeometry x="40" y="30" width="78" height="78" as="geometry" />
        </mxCell>
        <mxCell id="5VA00lFqFto38derzU0V-38" style="edgeStyle=orthogonalEdgeStyle;rounded=0;orthogonalLoop=1;jettySize=auto;html=1;exitX=1;exitY=0.5;exitDx=0;exitDy=0;exitPerimeter=0;entryX=0;entryY=0.5;entryDx=0;entryDy=0;entryPerimeter=0;" parent="5VA00lFqFto38derzU0V-1" source="5VA00lFqFto38derzU0V-10" target="5VA00lFqFto38derzU0V-18" edge="1">
          <mxGeometry relative="1" as="geometry" />
        </mxCell>
        <mxCell id="5VA00lFqFto38derzU0V-10" value="" style="sketch=0;points=[[0,0,0],[0.25,0,0],[0.5,0,0],[0.75,0,0],[1,0,0],[0,1,0],[0.25,1,0],[0.5,1,0],[0.75,1,0],[1,1,0],[0,0.25,0],[0,0.5,0],[0,0.75,0],[1,0.25,0],[1,0.5,0],[1,0.75,0]];outlineConnect=0;fontColor=#232F3E;gradientColor=#F78E04;gradientDirection=north;fillColor=#D05C17;strokeColor=#ffffff;dashed=0;verticalLabelPosition=bottom;verticalAlign=top;align=center;html=1;fontSize=12;fontStyle=0;aspect=fixed;shape=mxgraph.aws4.resourceIcon;resIcon=mxgraph.aws4.lambda;" parent="5VA00lFqFto38derzU0V-1" vertex="1">
          <mxGeometry x="180" y="30" width="78" height="78" as="geometry" />
        </mxCell>
        <mxCell id="5VA00lFqFto38derzU0V-16" value="&lt;b&gt;Transform&lt;/b&gt;" style="rounded=1;whiteSpace=wrap;html=1;" parent="5VA00lFqFto38derzU0V-1" vertex="1">
          <mxGeometry x="302.75" y="120" width="106.5" height="40" as="geometry" />
        </mxCell>
        <mxCell id="5VA00lFqFto38derzU0V-6" value="&lt;b&gt;Validate&lt;/b&gt;" style="rounded=1;whiteSpace=wrap;html=1;" parent="5VA00lFqFto38derzU0V-1" vertex="1">
          <mxGeometry x="25.75" y="120" width="106.5" height="40" as="geometry" />
        </mxCell>
        <mxCell id="5VA00lFqFto38derzU0V-14" value="&lt;b&gt;Extract&lt;/b&gt;" style="rounded=1;whiteSpace=wrap;html=1;" parent="5VA00lFqFto38derzU0V-1" vertex="1">
          <mxGeometry x="165.75" y="120" width="106.5" height="40" as="geometry" />
        </mxCell>
        <mxCell id="5VA00lFqFto38derzU0V-39" style="edgeStyle=orthogonalEdgeStyle;rounded=0;orthogonalLoop=1;jettySize=auto;html=1;exitX=1;exitY=0.5;exitDx=0;exitDy=0;exitPerimeter=0;entryX=0;entryY=0.5;entryDx=0;entryDy=0;entryPerimeter=0;" parent="5VA00lFqFto38derzU0V-1" source="5VA00lFqFto38derzU0V-18" target="5VA00lFqFto38derzU0V-21" edge="1">
          <mxGeometry relative="1" as="geometry" />
        </mxCell>
        <mxCell id="5VA00lFqFto38derzU0V-18" value="" style="sketch=0;points=[[0,0,0],[0.25,0,0],[0.5,0,0],[0.75,0,0],[1,0,0],[0,1,0],[0.25,1,0],[0.5,1,0],[0.75,1,0],[1,1,0],[0,0.25,0],[0,0.5,0],[0,0.75,0],[1,0.25,0],[1,0.5,0],[1,0.75,0]];outlineConnect=0;fontColor=#232F3E;gradientColor=#F78E04;gradientDirection=north;fillColor=#D05C17;strokeColor=#ffffff;dashed=0;verticalLabelPosition=bottom;verticalAlign=top;align=center;html=1;fontSize=12;fontStyle=0;aspect=fixed;shape=mxgraph.aws4.resourceIcon;resIcon=mxgraph.aws4.lambda;" parent="5VA00lFqFto38derzU0V-1" vertex="1">
          <mxGeometry x="317" y="30" width="78" height="78" as="geometry" />
        </mxCell>
        <mxCell id="5VA00lFqFto38derzU0V-40" style="edgeStyle=orthogonalEdgeStyle;rounded=0;orthogonalLoop=1;jettySize=auto;html=1;exitX=1;exitY=0.5;exitDx=0;exitDy=0;exitPerimeter=0;entryX=0;entryY=0.5;entryDx=0;entryDy=0;entryPerimeter=0;" parent="5VA00lFqFto38derzU0V-1" source="5VA00lFqFto38derzU0V-21" target="5VA00lFqFto38derzU0V-35" edge="1">
          <mxGeometry relative="1" as="geometry" />
        </mxCell>
        <mxCell id="5VA00lFqFto38derzU0V-21" value="" style="sketch=0;points=[[0,0,0],[0.25,0,0],[0.5,0,0],[0.75,0,0],[1,0,0],[0,1,0],[0.25,1,0],[0.5,1,0],[0.75,1,0],[1,1,0],[0,0.25,0],[0,0.5,0],[0,0.75,0],[1,0.25,0],[1,0.5,0],[1,0.75,0]];outlineConnect=0;fontColor=#232F3E;gradientColor=#F78E04;gradientDirection=north;fillColor=#D05C17;strokeColor=#ffffff;dashed=0;verticalLabelPosition=bottom;verticalAlign=top;align=center;html=1;fontSize=12;fontStyle=0;aspect=fixed;shape=mxgraph.aws4.resourceIcon;resIcon=mxgraph.aws4.lambda;" parent="5VA00lFqFto38derzU0V-1" vertex="1">
          <mxGeometry x="450" y="30" width="78" height="78" as="geometry" />
        </mxCell>
        <mxCell id="5VA00lFqFto38derzU0V-30" value="&lt;b&gt;Store&lt;/b&gt;" style="rounded=1;whiteSpace=wrap;html=1;" parent="5VA00lFqFto38derzU0V-1" vertex="1">
          <mxGeometry x="435.75" y="120" width="106.5" height="40" as="geometry" />
        </mxCell>
        <mxCell id="5VA00lFqFto38derzU0V-35" value="" style="sketch=0;points=[[0,0,0],[0.25,0,0],[0.5,0,0],[0.75,0,0],[1,0,0],[0,1,0],[0.25,1,0],[0.5,1,0],[0.75,1,0],[1,1,0],[0,0.25,0],[0,0.5,0],[0,0.75,0],[1,0.25,0],[1,0.5,0],[1,0.75,0]];outlineConnect=0;fontColor=#232F3E;gradientColor=#F78E04;gradientDirection=north;fillColor=#D05C17;strokeColor=#ffffff;dashed=0;verticalLabelPosition=bottom;verticalAlign=top;align=center;html=1;fontSize=12;fontStyle=0;aspect=fixed;shape=mxgraph.aws4.resourceIcon;resIcon=mxgraph.aws4.lambda;" parent="5VA00lFqFto38derzU0V-1" vertex="1">
          <mxGeometry x="580" y="30" width="78" height="78" as="geometry" />
        </mxCell>
        <mxCell id="5VA00lFqFto38derzU0V-36" value="&lt;b&gt;Notify&lt;/b&gt;" style="rounded=1;whiteSpace=wrap;html=1;" parent="5VA00lFqFto38derzU0V-1" vertex="1">
          <mxGeometry x="565.75" y="120" width="106.5" height="40" as="geometry" />
        </mxCell>
        <mxCell id="5VA00lFqFto38derzU0V-43" style="edgeStyle=orthogonalEdgeStyle;rounded=0;orthogonalLoop=1;jettySize=auto;html=1;entryX=0;entryY=0.5;entryDx=0;entryDy=0;entryPerimeter=0;" parent="1" source="5VA00lFqFto38derzU0V-2" target="5VA00lFqFto38derzU0V-4" edge="1">
          <mxGeometry relative="1" as="geometry" />
        </mxCell>
        <mxCell id="5VA00lFqFto38derzU0V-2" value="" style="sketch=0;points=[[0,0,0],[0.25,0,0],[0.5,0,0],[0.75,0,0],[1,0,0],[0,1,0],[0.25,1,0],[0.5,1,0],[0.75,1,0],[1,1,0],[0,0.25,0],[0,0.5,0],[0,0.75,0],[1,0.25,0],[1,0.5,0],[1,0.75,0]];outlineConnect=0;fontColor=#232F3E;gradientColor=#60A337;gradientDirection=north;fillColor=#277116;strokeColor=#ffffff;dashed=0;verticalLabelPosition=bottom;verticalAlign=top;align=center;html=1;fontSize=12;fontStyle=0;aspect=fixed;shape=mxgraph.aws4.resourceIcon;resIcon=mxgraph.aws4.s3;" parent="1" vertex="1">
          <mxGeometry x="-70" y="260" width="78" height="78" as="geometry" />
        </mxCell>
        <mxCell id="5VA00lFqFto38derzU0V-45" style="edgeStyle=orthogonalEdgeStyle;rounded=0;orthogonalLoop=1;jettySize=auto;html=1;entryX=0;entryY=0.5;entryDx=0;entryDy=0;entryPerimeter=0;" parent="1" source="5VA00lFqFto38derzU0V-3" target="5VA00lFqFto38derzU0V-2" edge="1">
          <mxGeometry relative="1" as="geometry" />
        </mxCell>
        <mxCell id="5VA00lFqFto38derzU0V-3" value="&lt;b&gt;CSV&lt;/b&gt;" style="sketch=0;pointerEvents=1;shadow=0;dashed=0;html=1;strokeColor=none;fillColor=#505050;labelPosition=center;verticalLabelPosition=bottom;verticalAlign=top;outlineConnect=0;align=center;shape=mxgraph.office.users.csv_file;" parent="1" vertex="1">
          <mxGeometry x="-200" y="268.75" width="89" height="60.5" as="geometry" />
        </mxCell>
        <mxCell id="5VA00lFqFto38derzU0V-17" value="" style="sketch=0;points=[[0,0,0],[0.25,0,0],[0.5,0,0],[0.75,0,0],[1,0,0],[0,1,0],[0.25,1,0],[0.5,1,0],[0.75,1,0],[1,1,0],[0,0.25,0],[0,0.5,0],[0,0.75,0],[1,0.25,0],[1,0.5,0],[1,0.75,0]];outlineConnect=0;fontColor=#232F3E;gradientColor=#4D72F3;gradientDirection=north;fillColor=#3334B9;strokeColor=#ffffff;dashed=0;verticalLabelPosition=bottom;verticalAlign=top;align=center;html=1;fontSize=12;fontStyle=0;aspect=fixed;shape=mxgraph.aws4.resourceIcon;resIcon=mxgraph.aws4.dynamodb;" parent="1" vertex="1">
          <mxGeometry x="481" y="420" width="78" height="78" as="geometry" />
        </mxCell>
        <mxCell id="5VA00lFqFto38derzU0V-31" style="edgeStyle=orthogonalEdgeStyle;rounded=0;orthogonalLoop=1;jettySize=auto;html=1;entryX=0.5;entryY=0;entryDx=0;entryDy=0;entryPerimeter=0;" parent="1" source="5VA00lFqFto38derzU0V-30" target="5VA00lFqFto38derzU0V-17" edge="1">
          <mxGeometry relative="1" as="geometry" />
        </mxCell>
        <mxCell id="5VA00lFqFto38derzU0V-32" value="" style="sketch=0;outlineConnect=0;fontColor=#232F3E;gradientColor=none;fillColor=#232F3D;strokeColor=none;dashed=0;verticalLabelPosition=bottom;verticalAlign=top;align=center;html=1;fontSize=12;fontStyle=0;aspect=fixed;pointerEvents=1;shape=mxgraph.aws4.magnifying_glass;" parent="1" vertex="1">
          <mxGeometry x="71" y="420" width="78" height="78" as="geometry" />
        </mxCell>
        <mxCell id="5VA00lFqFto38derzU0V-34" value="" style="shape=image;verticalLabelPosition=bottom;labelBackgroundColor=default;verticalAlign=top;aspect=fixed;imageAspect=0;image=data:image/png,iVBORw0KGgoAAAANSUhEUgAAAfQAAAH0CAYAAADL1t+KAAAACXBIWXMAAA7EAAAOxAGVKw4bAAAE6GlUWHRYTUw6Y29tLmFkb2JlLnhtcAAAAAAAPHg6eG1wbWV0YSB4bWxuczp4PSdhZG9iZTpuczptZXRhLyc+CiAgICAgICAgPHJkZjpSREYgeG1sbnM6cmRmPSdodHRwOi8vd3d3LnczLm9yZy8xOTk5LzAyLzIyLXJkZi1zeW50YXgtbnMjJz4KCiAgICAgICAgPHJkZjpEZXNjcmlwdGlvbiByZGY6YWJvdXQ9JycKICAgICAgICB4bWxuczpkYz0naHR0cDovL3B1cmwub3JnL2RjL2VsZW1lbnRzLzEuMS8nPgogICAgICAgIDxkYzp0aXRsZT4KICAgICAgICA8cmRmOkFsdD4KICAgICAgICA8cmRmOmxpIHhtbDpsYW5nPSd4LWRlZmF1bHQnPi4gLSAxPC9yZGY6bGk+CiAgICAgICAgPC9yZGY6QWx0PgogICAgICAgIDwvZGM6dGl0bGU+CiAgICAgICAgPC9yZGY6RGVzY3JpcHRpb24+CgogICAgICAgIDxyZGY6RGVzY3JpcHRpb24gcmRmOmFib3V0PScnCiAgICAgICAgeG1sbnM6QXR0cmliPSdodHRwOi8vbnMuYXR0cmlidXRpb24uY29tL2Fkcy8xLjAvJz4KICAgICAgICA8QXR0cmliOkFkcz4KICAgICAgICA8cmRmOlNlcT4KICAgICAgICA8cmRmOmxpIHJkZjpwYXJzZVR5cGU9J1Jlc291cmNlJz4KICAgICAgICA8QXR0cmliOkNyZWF0ZWQ+MjAyNC0wOC0wMzwvQXR0cmliOkNyZWF0ZWQ+CiAgICAgICAgPEF0dHJpYjpFeHRJZD4xOGVmZjMwNy1jYjQzLTQ0ZDUtODRlMi1hMjZjOWY0YzQ3YmQ8L0F0dHJpYjpFeHRJZD4KICAgICAgICA8QXR0cmliOkZiSWQ+NTI1MjY1OTE0MTc5NTgwPC9BdHRyaWI6RmJJZD4KICAgICAgICA8QXR0cmliOlRvdWNoVHlwZT4yPC9BdHRyaWI6VG91Y2hUeXBlPgogICAgICAgIDwvcmRmOmxpPgogICAgICAgIDwvcmRmOlNlcT4KICAgICAgICA8L0F0dHJpYjpBZHM+CiAgICAgICAgPC9yZGY6RGVzY3JpcHRpb24+CgogICAgICAgIDxyZGY6RGVzY3JpcHRpb24gcmRmOmFib3V0PScnCiAgICAgICAgeG1sbnM6cGRmPSdodHRwOi8vbnMuYWRvYmUuY29tL3BkZi8xLjMvJz4KICAgICAgICA8cGRmOkF1dGhvcj5SeWFuIFdpbGxpYW1zPC9wZGY6QXV0aG9yPgogICAgICAgIDwvcmRmOkRlc2NyaXB0aW9uPgoKICAgICAgICA8cmRmOkRlc2NyaXB0aW9uIHJkZjphYm91dD0nJwogICAgICAgIHhtbG5zOnhtcD0naHR0cDovL25zLmFkb2JlLmNvbS94YXAvMS4wLyc+CiAgICAgICAgPHhtcDpDcmVhdG9yVG9vbD5DYW52YSAoUmVuZGVyZXIpPC94bXA6Q3JlYXRvclRvb2w+CiAgICAgICAgPC9yZGY6RGVzY3JpcHRpb24+CiAgICAgICAgCiAgICAgICAgPC9yZGY6UkRGPgogICAgICAgIDwveDp4bXBtZXRhPp6hyRwAAENoSURBVHic7N15uF1Vecfxb8hAJhAIEEgB0QQJ2KCICCqEEEGJVOKAoohDMRWLfarUocWJ4FBwKKA+QpkRCDYmigQQAhoIggwFRIYHHChTRCLUypAACqR/vOeaS5LDPefes9Y6e5/v53n2cxOT7PcNJvmdtfbaaw1DUjcbC2zQuMav8bX/t0cD6wOjGlezbw9v3PfPwP3AncAVwM1ZfjeSkhlWugGpBw0DNgMmAVv2uyat8e0tiBDO4S5gDnBNpnqSOsxAl9LZHHgZsH3ja981hXxB3a6jgbmlm5DUPgNdGprNgMmN66VEeE8BXk5Mh1fRN4GPl25CUnsMdKl9U4HDgdnANoV7SeUDwNmlm5DUOgNdat2GwHeAQ0o3ksEjwLbAisJ9SGrR8IF/iiTgxcD1wPTSjWQyFngMF8lJleEIXRrYJsANxHPyXnILsHPpJiS1xkCXBvZTYGbpJgqZAPyxdBOSBrZe6QakLvcGejfMAV5SugFJrTHQpRd2WOkGCtuwdAOSWuOUu9TcKOBPwJjSjRS0PfDr0k1IGpgjdKm5HejtMF+BYS5VhoEuNbdx6QYKW1y6AUmtM9Cl5rp1v/VcTindgKTWGehSc73892MBjtClSunlf7CkgfTq349fA4eWbkJSe0aUbkDqYr34FshdwCzgiUT3n9G4SplbsLaUlIEuNddrI/R5xClyjyWsMQM4KuH9B3I88GjB+lIyBrrUXC+M0B8GlgD/CVxZthVJQ2GgS811U6DfB/wOWAk8tY7raWKa/JkmP/4Uz59GfxK4F1iepXtJyRnoUnM5ptz/QARr3/Ug8FDjWt74+qcMfUiqOANdaq7TI/QHgGN4foA/2eEaknqUgS411+kR+v3ASR2+pyQBvbeKV2pHp/9+rOrw/STprwx0qblOT7k/1+H7SdJfGehSc50OdEfokpIx0KXmnHKXVBkGutScU+6SKsNAl5pzhC6pMgx0qTmfoUuqDANdas4pd0mVYaBLzTnlLqkyDHSpOafcJVWGgS411+m/H065S0rGQJeac4QuqTIMdKk5A11SZRjoUnNOuUuqDANdas4RuqTKMNCl5nxtTVJlGOhSc24sI6kyDPR62AD4IHAZMQpcBSwHfg58Ddi7WGfqz0CXlIyBXn2fBR4CzgT27fe/bw68FvgUsAS4Atghe3fV5ghdUmUY6NW1I3AN8GVgbAs/fwZwI3Bwwp7qZniH7+czdEnJGOjV9DHgeuB1bf66scA84IiOd1RPrnKXVBkjSjegtmwJ/BDYfYj3OQ54CjhpyB3Vm6vcJVWGI/TqeCNwB0MP8z4nAv/YoXvVlYEuqTIM9O43ghhRLwY27vC9DfUX5pS7pMpwyr27bQssBHZJWOPExlen39fmKndJlWGgd6+3AucA4zPUOhF4GjgjQ60qccq9884CrixY/9GCtaWkDPTusz5wAvCRzHVPa3w11Fdzyr3z7m1ckjrMQO8uLwZ+BLyyQO1hwOn9vqrzni3dgKT6clFc95gJ3EKZMO/vVODQwj10i05vLCNJyRjo3eFI4HJgo9KNECP004D3lm6kCzjlLqkynHIvaxxwNvD20o2sYRjRF8TOcr2q0x94XeUuKRkDvZzJwMXA9qUbaWI9DHVH6JIqwyn3Mt4E3Ez3hnmfvlA/sHQjhfjamqTKMNDzGgbMBS4BNizbSsvWA/6L3gx1N5aRVBkGej6jgYuAo+h8UKQ2nN4MdafcJVWGgZ7H5sDPgDeXbmQIhgML6I1Q34Y4YrbTv1dH6JKScVFcetOAHwNblW6kQxYA7yCOca2TycBBRIjvnKiGgS4pGQM9rX2A88mzH3tO84lQX1S6kSF6OfH7OJD44CVJlWWgp/P3xAYtdXysMQL4AdUM9VcQAf4OYIfMtX2GLikZA73z1gO+BXy0dCOJ9YX6W4BLC/cykK2B9wGHkD/E+3PKXVIydRw9ljSe2CymVJg/CXwKeCxTvRHEK3j7Z6rXjg2Aw4CrgPuBr1A2zMFAl5SQI/TO2QhYCuxUqP4dwGzgbmBJ43pRpto/bNQuPVIfQbxJcAgxczC6bDtrccpdUjKO0Dtjc+AayoX5KcAuRJhD7EI3E3g0U/1RwAXAfpnqrWlz4GhgWaOPd9J9YQ4Geq/alfj/vtT1nvS/RXUDA33oJgHXATsWqL0SeBsxtfz0Gj9WKtRnZqoHsDuxz/wy4AvAxIy1B+OJ0g1Iqi8DfWgmA9cDLylQ+3ZixfaPXuDn3Ay8AXg8S0cR6hc3aqZ0EHADcC1wMDAycb1O+X3pBiTVl4E+eDsSgVJiw5gzifemf9vCz70J2BdYkbSj1UYDP6Hzob4x8HngD8Q2tLt2+P45XFe6AUn1ZaAPzquIrVw3K1D7o8Chbf6a64lNbnKFOsCFdGb6fRLwTeBB4IuU+W/eCXcDt5VuQlJ9Gejt2w24Atgkc91HgNcDJw7y119HhHqu57hjiFDfc5C/fipwDvA74J/pzkVu7fhm6QYk1ZuB3p4ZwJXkP/r0F8T+4j8f4n2uA2YR76vnMBZYDExv49fsDHwfuJN4/awOfgF8u3QTkurNQG/d64njT3OPFM8jpviXdeh+VwNvJF+ojyEOp9ljgJ/3ciL8byZeO6uLPxHbzEpSUgZ6a3YjNk0Zl7nup4H3Jrjv1cQ747lCfRzx3+/16/ixacTU+u3EB406eYR4zHFP6UYk1Z+BPrBdiJFj7hPTZgNfT3j/q8i7EUxfqL+28f1pxDP2W6nP1Hp/ZxG/x5sK9yGpR7j16wvbCbiMfFuoQixam0WMolO7ini97KcZakF8KLoMuJzYEKdulhIfUubTuUckktQSA725qeRfzf4wsDexL3suS4hQv5g86wPGU58wX04cTnMx8UEl16E4krQWA33dphCj15xhfh+wV+NrbkuIE9NyhXpVrQL+m1jkdzExne7+7JK6goG+tsnEdHfODUxuIRaEPZyx5pqWAAcQI0093wWN60JioZskdR0D/fkmEsGW85CPpcRRn7n2W38hlxPP7y8p3UhhTxH/DRYAi8i7w54kDYqBvto4ItC2yVjzEuJ58ponpZV0KRHqFxCHrfSKlawO8Qsb35ekyjDQw3Di1LJpGWsuIE4KeyZjzVZdSrw2V/dQX0UsfDwbWIgjcUkVZqCH04kNQHI5A5hDdy+o6gv1C6nfn5NfESF+FnHoiyRVXt3+oR6MzwEfyFjvBOCIjPWG4lLgQF74zPWqeJw4dvUshr4nviR1nV7fKe4g4EsZ632J6oR5nwuIkXo3PhpoxY3EbMhE4MMY5pJqqpcDfTqxh3guRwBfyFivkxYRB4xUJdRXEo81XgPsSjxSybVvvSQV0auBviPxbHhkpnofI6baq2wR8J7STQzgt8TZ6VsCHyI2gZGkntCLgb4p8Ww415nmnwC+lalWaguBd5VuYh1+TayD2I44d9wtWCX1nF4L9PWJd423zlTvSOC4TLVyWUCcV/5s6UaIk9reRey7f3bhXiSpqF4L9HnAqzPV+iJwbKZauS0E3g08V6j+TcSGPK8gPmB08+t/kpRFLwX6vxELu3I4FjgqU61SFgLvz1zzJmKb3FdTj1fpJKljeuU99NnAMZlqHUdMtfeCecAw0r8tcBVwNLHPviRpHXoh0HcCzstU62RiEVwvOZcI9RTPsG8hZlYWJ7i3JNVK3afcNyXOrR6bodYi4PAMdbrROcAhdO5Z9h3A24GdMcwlqSV1DvS+Fe1bZah1NbHyu9QisW4wj6HvT/8/wPuIWZXzO9GUJPWKOgf6aeRZ0X4bsD/w5wy1ut0ZxHqFds92f5DYlnUyMYXfyx+MJGlQhpVuIJE5wKkZ6twH7A48lKFWlWwHnMjAJ9gtIxYRHp+8I6mcScQH1lIWArcXrK9M6hjoOxIHcoxJXOd/gdcCv0lcp8r2BmYBewAvBcYR27FeS2y9e1251iSpXuoW6GOIldEvS1xnJXG4y02J60iS1JK6PUP/NunDfBVx7KphLknqGnUK9NnECVupfQ64KEMdSZJaVpcp922Jgzo2SFznB8CBiWtIktS2OgT6SGKh1SsS17mRWNz1dOI6kiS1rQ5T7l8jfZgvI1ZrG+aSpK5U9RH6fsRucCmtJF5PuzVxHUmSBq3KgT6R2PN7QuI6BxDvTEuS1LWqPOV+LunD/EsY5pKkCqjqCP0jwEmJa1wCvDlxDUmSOqKKgb4psd3qRglr3A3sAjyasIYkSR1TxSn3w0gb5iuBv8MwlyRVSBUD/Z2J7/9B4K7ENSRJ6qiqTbmPIu274P8BfDLh/SVJSmJE6QbatH3i+7uiXXUxdo1rTOPryMaP/wV4ALi/SHeSOq5qgb5+4vv/GJgJXJ+4jtSOScA267gmAON5fmD3fbtVTwJLgfnAWR3ruLkZjauUuQVqTgI+XKBun4XA7QXqfg3YsEBdiO3ATy9Uu5iqTbm/GLg3cY0ngH0w1JXXGGBqv2uHxtdpGXu4jjgaOOWofS5wVML7D2Qj8i943RW4IXPN/g4Gvleg7u+BLQrUBTgPeG+h2sVUbYR+H7EKfWzCGuOBy4G98cxzpbMZMJ0Yrb4OeFXRbsLuxJ/5NwE3F+5FUpuqFugAi4G3Ja6xAfBTYvrdf9jUCVOAPYlzAWYCk8u209SmwE+AnYhDiSRVRBUD/TzSBzrAi4AriBHULzLUU71MIwJ8b2AvYkReFRsDZwL7lm5EUuuqGOgLiYDdOUOtDYnRygzgtgz1VF3DiSn0A4kPnFuWbWfI9iH+3F9Ztg1JrarixjIQizxWZqq1CfGP2tRM9VQdI4gjfE8FHgKWAIdT/TDvM6d0A5JaV9VAv4sI9Vw2AX5GrDxWbxsJ7E+84vUwcYjPHOLZc9045S5VSFUDHeACYhvYZzPV25R4X3dKpnrqHv1D/A/ARcAHSHumQDfYHPib0k1Iak2VAx3iefq7yRfqmxEjdUO9N0wC/h14kN4J8TVtVboBSa2peqDD6lB/LlO9LYhQ3zZTPeU3A/gBscHKkdRzOr1Vw0s3IKk1dQh0iFB/P4a6huYfiLcZrgDejmEGsZmTpAqoS6ADzCNvqG9FhLpTktU2Dvg0sUr9FOBvy7bTVZYBvyvdhKTW1CnQwVBX6yYAXyROHPsqMLFsO13pu6UbkNS6ugU6rA71VZnqbUuEeqlDCNSeicDxxPPxzxO7omltTwAnlG5CUuvqGOgQoT4HQ12rbUisWL8X+DhpD/ipgy8Dj5RuQlLr6hroAGeQN9SnEKFepT27e8Fo4JPAPcSK9dFl26mERcRjCEkVUudAh9WhnssU4CoM9W4wHPgQ8Bvg68RufxrYAmLDJkkVU/dAhwj1wzPWm0qEugFSznTgFuA0XLDYqtuJjXPeBfy5cC+SBqGKp60NxkmNrydmqjeVONBlBvDHTDUVh6IcDxxUupEu8Riwot/1OGvvqvgAcDJwdd7WJHVarwQ65A/1aUSo7wk8mqlmL/sM8DlgTOlGErqXWAtwD3B34/vLeH5or8APkVJP6qVAhzKhvgSYiaGeyl7AmcBLSjfSQcuAW4FfAncQu9fdWrQjSV2v1wIdItTXJ6Zmc3gVEep7Ee/2qjNGEq+h/QvVXguyArgBuLZx/RxH2JIGoRcDHVZvmJEz1H8C7IOh3gk7AOcBryzdyCDcR4T2tcA1wM1l25FUF70a6JA/1HcjQn0msDJTzTr6BPCN0k20YTnxKthSYuHZQ2XbkVRXvRzoUCbUFwNvwlBv10TgXGKWo9s9AMwHzidG45KUXK8HOkSojwaOyVRvDyLU9wWeylSz6mYBZ9Pd55L/H9HjOcBNhXuR1IOqvJiok44ltgXNZQ/gYtyGdCAjidmTH9OdYf4McBHwDmIG4eMY5pIKcYS+2rHE6ve5merNJEJ9Fu7MtS6TiWfPO5duZB2WA98mdqJbXrgXSQIcoa/paCLYc5kJXACMylizCt5NvHvdbWH+S+CDxKl6X8Ewl9RFDPS1HUneUN+PCHVnS8KXge/RXTu+fR94HfGa3HcL9yJJ62SIrNuRxLGruZ6r70eEWC+fcjWKCM7ZpRtpeA5YCHwB+FXhXqQqWklsnFTC04XqFjWsdANd7hvEe8+55J4d6BYTgEuAXUs3QgT5fOLxi0EuqTIM9IEdT6xezmEFsRisl57NTiG2xt26dCPApcRWsneWbkSS2jW8dAMVsBjYCNg9Q61RxLqGyzLU6ga7ELunTSzcx53E446vAI8U7kWSBsUReuuOA47IUOdR4gNE3c0ALgTGF+xhOfCvuNBNUg04Qm/dYmIkmfo572hgHvU+cWsWsSHL2EL1VwGnAgcQJ51JUuX52lp7Dmf1meop1els7zW9E1hEbOJTwq+IxyeHAY8V6kGSOs5Ab1+OUC81ck1tDvFqWqnXJT8DTMVRuaQa8j30wTmcGGEemuj+dVyYdRBwSqHatzXqu3pdUm05Qh+8pYnuuwq4JdG9S3krsS4g9yLM54CvEqvpDXNJteYq98EZC/wGmJTg3kuJFeB18WbKbG17H3AwnkcuqUc45T44nyJNmAOcnOi+JUwHzif/n7NLiCn2xzPXlaRiHKG3bwIx+huX4N73ANsBzya4d267ETvA5V7g9xngmMw1Jak4R+jt+zRpwhwijOoQ5tsT26jmDPOHiVfiUq1tkKSu5gi9PROAZcTmL512G7BTgvvmtjVwPbBlxpo3Am8BHspYU5K6iqvc2/NZ0oQ55D3VLZWNgMvJG+YXAXtimEvqcY7QW7cF8ex8VIJ7LwHekOC+OY0mprtfk7HmCcTpaKsy1pSkruQz9NZ9ljRhDvmOZ01pPnnDPNc2vJJUCQZ6a7YAPpzo3vOJ5+dVNpc46CSX2cR+8JKkBqfcW3MyaQL9WeI1tXsS3DuX6cCV5Pmz9Bdgf+I5vSSpHwN9YFsTgZviqNnvAP+U4L65TCJmFzbJUOtpYiW7Yd66MY1r9BrXGOAZ4H7g98W6k9RR/w8AAP//7N17vNVVmcfxzwEU0RBJEsULphiIFzKoEBXTDMcizG5aeU20mWoyp0lzHNPQMqccaxxrMkWl8pJpXirTSmxMCUVM8cYLUsQLqMhF5Cpy5o+HMx4O57LP3s/zW7+19/f9ep0XafhdC8Tz7PX7rbUePXLv2pnE9Y2fFJRbhM2A2ymmmK/CrpC9p4CxcrMlsCcwHOskt/eGv96jwn9+CbYp8wrs7gARyZRW6J3rC7yErWi8fRc4KyC3KD8EvlLQWIcCUwsaq+wOAMZgrzr2AQY7Zt8GnIgVeRHJjAp6587ECq+3FcCOwLKA7CIcBdxc0FhH0Lgrx37Agdg5+/2xIh5tHjAOaz4kIhlRQe9YL+yb244B2ecB3wrILcL2wBNA/+Bx3gQ+CdwSPE7ZDMN28R+J3Yef4vKnp4H3kO8HTpGGpILesWOA6wJyl2EfElYEZEdrwt5jR68U12OtT28IHqcsDsI2/B0FDEk8lxa/xDrWiUgmVNA79ggxd6t/A7goILcI36CYTmYTgSsLGCelPbA9CJ8j/mlHtUYCM1NPQkQqo4LevjHAfQG5rwI7AasDsqPtBzxA/MmIfwe+HTxGKk3AeOyo4oco/39/U4ATUk9CRCqj5iztOz0o93zyLOZbAr8ivphfRn0W822w632fxnaSj6P8xRzsFYCIZCKHbypF2wVrwuJtIcV2IfN0GXZ3eqTbsAKyPnicIvUHzgVOSz2RGuxG3jcZijQMrdA39aWg3EuCcqONJb6YT8V2dddTMT8NW5HnXMzB95y7iATSCn1jPbCLZAY4564CBgLLnXOjbQE8Rew39ReAEdj+gtw1AZ/BXhvsmnYqbkYD01NPQkS6pqtfN/ZR/Is5wGTyK+YA3ye2mK/DVub1UMwPwPqzj0o9EWcRr59EJIAK+sZODshsBi4OyI12AHGvH1qcBTwUPEa0fsClwHGpJxLgGWzvh4hkQAX9LQOw1pzefkOem4quCc6/DXsCkLMJwOXY65R6dFPqCYhI5bQp7i0Tifn9yHEz3FeB3QPz55H3+eb+wPXArdRvMV9KTB8DEQmiTXFvmYf/++LZ2N3cOemP/V5sHZS/DnvP/EhQfrRjsQ9pEXstyuQTFNeAR0Qc6JG7OYiYzV9FXJPq7ZvEFXOAr5NnMd8Cu472s6knUoBvoWIukh2t0M1VWB9oT4uBbZ0zow3G2mZuFpT/e6wdam62w+a+X+qJBHsTuyXx0tQTEZHu0wrdildEV6kpAZnRLiGumL+AndHOzX7YxsZBqScS7D7sVEOOT09EBBV0sGYZfQJyLwvIjDSa2Lu7j8U2WuXkU1gb0dy9jrXrXbnhxxXAEmyvxGPA3cCTqSYnIj5U0O2btrf7gbkBuZEim6L8AuujnpPzsHvYc7AKmIYdj2z9NQ9YkG5aIlKkRn+HvhmwDP8V+knA1c6ZkcYCfw7KXgoMIa/b4K4Djkk9iS78Bfgjtrq+N/FcRKQEGn2F/hH8i/lKrCDk5HuB2WeQVzG/BbuOtmxeBW7Ezr7/L/bnTETk/zV6QY943D4FWBOQG+VDwPuCsqcBPw3K9tYb+C3wwdQTaWUO9gHjFuz3sjntdESkzBr9kfty4G3OmSOBmc6ZkaYTU9Cbgb2BJwKyvfUB7sTuI0htDbYR70fAXxPPRUQy0sgr9CPxL+ZzyauYjyNudX4FeRTzrbFiPjrxPOYBP8Huhl+cdioikqNGLuifDMi8NiAz0plBucuBs4OyPW2DbSwbmXAO84GvAb9KOAcRqQON2pylJzEbn3I6s7w3cGhQ9gXAK0HZXvoAU0lXzFdh7WMHo2IuIg4adYU+DujrnDkXeNw5M9I5QbnzyaPD3PXAuxOM2wz8HHs6ojPiIuKmmoLeB9gTa6+524a/Xo99o2r7Y1n/3sQqft1d+VlAZpRdiXnlAFao3gjK9nI21su8aHOB49BmNxEJ0J1d7kOwLkyN0G2qGsOwdqk5uAz4YkDuLGDfgFxPhwN3UOwJj3XYWf/zgLUFjisiDaTSb2oTyec8cQqPAiNST6JC2wAvEnN//XjsLHdZvQt4CP/TDZ15Emv+M6vAMUWkAVWyKe5fUDHvSk69oz9HTDGfQbmL+dbYyrzIYj4JGI6KuYgUoKsV+uFYH2jp3HuAh1NPokKPAXsF5B6E3S9eRj2w42mHFDTeKuDTWNtVEZFCdLYpbivgqqImkrHnyaeYjyKmmN9PeYs5wL9TXDF/FusRkNOJBxGpA509cj8N2KGoiWQsp8ftpwTlXhyU62Ff4o7otXUvdhROxVxECtfZI/c52M526dyh2AUlZdcbu1J0S+fcZ7A/J+udc73Mwi7RifZz7EiaiEgSHa3Qd0DFvBJLyKOYg/X39i7mYKvzshbzb1NMMf8FcHwB44iIdKijgp66UUUubk89gW6IuD9gCTA5INfDSOAbBYwzGVuZq7WpiCTVUUHfr9BZ5OvXqSdQoQHYdbfeLsd2dJfN5sANxPcq+AFwMirmIlICHX3D26fQWeRpLdZ2MwefCsr9UVBurb6DXU0cPcbpwWOIiFSso4I+tNBZ5Ol3lHN12p6jAzLvxhqxlM1w7DKkSNeSR3tYEWkgHRX0PQudRZ5uST2BCg0ExgbkXh6Q6eFiYu9pnwGcGJgvIlKV9gr6uwqfRX5WAjemnkSFjsa/wC3C3lGXzcHAPwTmPw8cQfm7yYlIA2qvoOtxe9d+hBX1HIwPyLwmINND5Dv9VdjGwkWBY4iIVK29q1+HFT6LvCzCzjfnoDcxj9vLuDo/Fnt/HuUzWOc0qc2JwAkJxx8PrCh4zGHAjwses7XzsT0vRfsNsG2CcQHuAs5NMO7ZxCyiKvG6Cnr3vAQcBixNPZEKHYYVdU/PAQ86Z9aqN3BRYP5lwK2B+Y1kV+ADCcfvrH9FlL6k/TWn2u8yEtg+0dhPJxp3N9Ld47JUj9wr9yjW3OSx1BPphoj3yWVcnZ8GDArKfhr416BsERE37RV07XDf1KXACGxTVE4iCnoZNwNG3gh3DLA6MF9ExEXbx08DgLc7j/EgsAbbad2EfYho78fO/r9Kfk53//k+ncx5HjATuAl71Fr0OzcPO+F/H/9zwAPOmbWaCPQPyj6f8r1eEBFpV9uCHrE6/zDaGZzCRwIyy3jVbdRtbbOASUHZIiLu2j5y994QtwYV81QOCsj8fUBmLfYnbmf7CcC6oGwREXdtC/puzvk65pPOgc55a4E/OWfW6otBuT8DHg7KFhEJ0bag7+Sc/3fnPKnMIGCwc+ZUrKiXxduxDWve1lBM21UREVdtC/rOzvkq6GlEPG6/IyCzFqcSc6b4e8CLAbkiIqGiC3qqw/2NzvtxO5Tr/XkTMY/bXwEuDMgVEQnXuqA3Abs452uFnsYY57xXgNnOmbU4GP8Pn2BXReZyR7+IyEZaF/R34P8IUwW9eD2Adztn/sU5r1ZHBWS+BkwOyBURKUTrgh6x4nkmIFM6txcd97mv1r3OebX6dEDmldiGOBGRLLX+xu+9w32Bc55UZt+AzDKt0CMaPjRjDVhERLIVuUJXQU/Du6CvBh5yzqxFxOP2O9HrIRHJnAp6/dnHOe8hYL1zZi0iCrpW5yKSvdYF3bv9pAp6Gt4r9FnOebXYHf+rXl8AfuOcKSJSuNYFfaBz9kLnPOlaP2BH58xHnfNq8fGAzDL2dxcR6bbWBd27BaVW6MXzbpcK5VqhR9yAd3NApohI4VoXdO8+6FqhF++dAZkzAzKr9X7nvIXA/c6ZIiJJaIVeX3Z1zptPeW5OGwRs55z5a+zImohI9iIL+kvOedI17/a3c53zajEqIPOmgEwRkSRaCrp3MQe7SlOK5f3IvUw3/Y10znuN8vV3FxGpWktB935/DrA4IFM6571CL1NBf69z3nTnPBGRpKJW6Csp12UkjaKeu+V5d5B7wDlPRCSpqIK+zDlPurYVsIVz5jznvGrtjJ2x96QVuojUlahH7iroxRsQkFmWR+57BmROC8gUEUmmpaBv45yrgl487yNdzcDLzpnV8u4EOB9Y5JwpIpJUS0H3flSrgl68dzjnLaE8Z7S9C7oet4tI3Wkp6Js756qgF8/7kfsrznm18O4EWJZXCSIibnpt+NG7oJfldrFG4r1Cr+eC/qJznlRuHnBPwvHXJRhzOWl/zaku+XoQ2DbR2HMSjTuXdNdJvx5V0Nc650nX3uacV6aC7v3IXQU9nas3fDWSp4BDUk8igQmpJ5DAhRu+koh65P6Gc550rUfXP6Vbljjn1cJ7ha4+AyJSd1qKQG/nXK3Qi7eZc16KR5Pt6QNs7ZypFbqI1B2t0OtHT+e8svw7jDhfPz8gU0QkqaiCrhV68Xp1/VO6pSwF3fvXtZryPH0QEXGjFXr98F6hl6XoeRf0N53zRERKQSv0+qEVemXK8kFFRMRVS0H3/qa5xjlPuuZdgMtyS5wKuohIBVoKunerU+9vwtI170LlffKhWnrkLiJSgZaC7r26U0EvXr3+O9QKXUSkAiro9cO7UHmfa6+W94U5ZdkbICLiSgW9fnj/OyxLQfd+RO7dKlhEpBRU0OtHvRb0V53z+uF/qqPUmpubP9jc3Hxk6nmISCwV9Prh/ch9K+e8akU0idkuILOUmpubRwB3Abc0Nzc3YrMMkYbRUtC9i4EKevFWOOeV5dH06/jfa+DdarbMlmHtO1eiO+xF6lpL4dUKPX/e3dH6O+fV4mV8W6g2zAq9qalpXnNz8y5Az6ampjJ10BMRZ1EFvaHeUZZEPRf0V/At6I20Qqepqem11HNocH2BkQnHfwL7UCzxhgHbJxp7XVRB7+ucJ11b7JxXlkfu4P8e3fPDgUhXhgFTE47/WeC6hOM3kjOAkxKNvbTlHfoq52AV9OLV+wrd07ud80REkmsp6Mucc/s550nXvAt6D2J6kVdjoXPevs55IiLJtRT0pc65WzvnSde8z2sD7ByQWY3HnfOGon0eIlJnVNDri/dKdrBzXrUecc7rgR67i0idiSroeuSexnPOebs451XrMfw7Ao5wzhMRSSqqoJdpQ1Ujme+cV5aCvhZ4yjnzPc55IiJJRRX0HsAWzpnStWed88ryDh3gUee88c55IiJJtRT0RQHZZTrH3Cied84b5pxXC+/36DsBezlniogk07rXtPdd4Kluy2lk3o/chzrn1cJ7hQ7wkYBMEZEkWhd078fuKujFm+ec1xsY4pxZrRkBmSroIlI3VNDry+yAzOEBmdV4Gdvt7ukAdCJDROpE64Lufb2mCnrxXgeecc4sS0EHuMM5ryfwUedMEZEkWhf0F5yzBzrnSWW8V7Fl2jh2Z0BmqkYKIiKuIgu6VuhpeF+T+n7nvFrcg//mzUMoz414IiJVa13QvY88qaCn4b1C34PyXOX7Jv5tKJuALzhniogUTiv0+uNd0AHGBmRW6/cBmaew8X8LIiLZiSzo73TOk8o8AbzhnDnaOa8WtwZkDgAmBOSKiBQmsqD3BnZwzpSuvQE87Jy5v3NeLZ7H/153gH8MyBQRKUzbgt7snF+WS0kazQPOeQcAvZwza3F1QObhwIEBuSIihWhd0Jvx76etgp6Gd0HvDRzknFmLK/FvpwpwSUCmiEgh2m4E8t7pvodznlTGu6ADfCggs1qLgNsCckcBRwbkioiEiy7ouzvnSWVmA8ucM8tU0AGuCMq9CO14F5EMtf3G9XfnfK3Q05nunDcK6O+cWYs7gAUBuUOB4wNyRURCtS3o3ruHy3QPeKO5JyBzXEBmtdZj79IjXAi8LShbRCRE253LTzrn9wa+A6zGNt01Y9+IK/nR++dWmrccu5xltfPvRdH+iP3eezoKuME5sxZXAGdjt7152h64GN0gJyIZiS7oAGcFZBZhPnA3MAn/DmZFmIG1xN3GMXMCsDmw1jGzFs8CvwXGB2SfCkwB7gvIFhFx1/aR+xL826jmahfgROBp4L+Avkln033N2CrdUx/K9dgd4NzA7Cuxp0wiIqXX3m7e2YXPovz+GZgGDEo9kW76Q0DmxwMyazET/z7pLYZij/RFREpPBb1ye2GNQXJasUU0MpkA9AzIrcU3A7PPAUYE5ouIuGivoEfck10v9iGvPQHz8d8XsS3le+w+A7gzMP924B2B+SIiNWtvd/B47BuYtG8lsDOwOPVEKnQB/o+NbwY+4ZxZqzHEbmB7ALvr3buTndS/vsDIhOM/AbyccPxGMox0rcPXtVfQhwBzip5JZs4E/iP1JCo0Avibc+YbwI6UbwPlXcTeaHcNtlFSRKR02nvkPpf8z2BHOyH1BLrhEezRu6fNgGOdMz2cF5x/AnB68BgiIlXp6M5qbYzr3HDy2vF+bUDmqQGZtbofuC54jP8EPhw8hohIt3VU0B8vdBZ5Kts75M78MiBzGDA6ILdWXyZ+f8OvgcOCxxAR6ZaOCvojhc4iTxG3k0V5GP/GOwBfDcis1WLglOAxNsc2jo4NHkdEpGIdFfQZhc4iT+PIq4HH1QGZnwIGBuTW6mZinkq0tgV2oY2KuoiUQkcF/T5gTZETyVTZeoR3ZjJ2HaynHpRzlQ7wT8Q/et8SK+plfPUgIg2mo4K+BlvlSOdyeuz+Iv53u4Ntjivj7XmLsaIebUvs9/XgAsYSEelQZ1d4Pgl8qaiJZGoHrM1mLt4APumc2Qd4HnjIOdfD48C+wJ7B42yOHeNbBkwPHktEpF1d9ZE+HTumIx17H/Bg6klUaAtgAb4tVcHamA4B1jnneuiHNXDZraDxbsDOq+uVlYgUqqNH7i0uAf67iIlkLKfH7quJOZM+GPhMQK6HZdi58dcLGu9obJW+U0HjiYgAXRd0sNah34qeSMYmpJ5AN10WlHsOlf15SmE2cEyB443Ajn7qrLqIFKbSNpj3YLt5BwHvCptNnrYHpgBLU0+kQq9gG7je6Zy7LdYEoqyXEs3BnlAUVWT7AMdhj/ynAm8WNK6INKiu3qG3ZzDwMaD/hr/usSGn7Y/t/b1q/z/PrJ2B3av4dXfm68D3nTMjfQy77czbLGwTWpldjz0WL9KTG8acVfC4ItJAqinouRuHf+/svwL7O2dG6gHMwz7ceDse+FlArpfewDRgv4LHXQuci3XpW1/w2CLSABqxoPfGNkp5n50ehO0gz8UZwEUBuS9gO97L3LFve+yYXYoGO9OwXfBqUSwirsq6iSnSGuBPAbk5NWsB+B9ijlbtCHwtINfTQuADpOnnvj/2CH4K9sGn0ZyH3ViY6qtf+K9wU++tYb4eX6lOoMwFlif6mlzAr690GrGgA9wakPnxgMxIrwGXB2WfBWwXlO1lDrY5cFmCsXtiG+ZmY8cIhyaYg0i0rbB+Fym+ynh7ZbhGLeg34X+v+Vhsp3dOLgzK3Qq4ICjb05PAodgn+hR6YKunp4BfUfx7fRGpI41a0F8F/uKc2RPbPZ6TBcRdHDQReH9QtqeZWJOdoi6e6cgnNsxlBvAFoG/a6YhIbhq1oEPMsa3jAzKjfQfbge2tCdvt3isg29t07Hx66qIOMBLb37AQuAo4IO10RCQXKui+xuJ/YUu0BcAVQdl7YDfI5aClqK9IPZENtgROxJ4kPYUddztiw98XEdlEIxf0edgjTm+fD8iMdgExq3SAf8MKew6mY7vfFyWeR1tDscuLfod94LgX+CZwYMpJiUi5NHJBh5hV+ufJ73z/AuDSoOxewC+CsiPMAEYBf089kU4ciPVXuBdYiXX7uwLruzAWvX8XaUg5vN+MdDNwvnPmIGyT1V3OudEmYR9G+nf1E6vwXuBs4NsB2RGexdri3g6MSTyXrvTBPoCMavP3n8POAa9q9bWy1f9eCszHdvr/rajJikicRi/oT2Bngb3PAX+e/Ar6a9jj8R8H5Z+HFchHg/K9LcY2pF2FvcvOzc5UfrXvYmyFP4ny7CEQkW5q9EfuYOd/vR1NzEo32k+wDzkRegE3AJsH5Uc5CTg19SSCvR27CngOMDrxXESkSirocGVQ7meDciM1A18MzB+G7dbOzU+x42TPpZ5IsB2wu+Y/mnoiItJ9KujwDPZNzFtkYYz0Z+C2wPzTsD0GuZkJ7AVck3oiBbgB2Dv1JESke1TQzVUBmcOBQwJyi/BlbONUlGuxjme5WY69T/8waRq7FKUP8PPUkxCR7lFBN9cS0+7zKwGZRXgOOxYVZQBwI/n++bsDe31wfeqJBBpBfg2HRBpart9Qva3AGrZ4m0DlO43L5vvYCYAoLWepc7UYa6xyJPBS4rlEmZh6AiJSORX0t1wdkNmDfFfpbxJ/693ZwAeDx4h2G7Zan5J6IgGOwB6/i0gGVNDf8ifgxYDcU8n3/u37ieuZDnaj3o3AkMAxirAUOAG7QCe3+we6skvqCYhIZVTQ39IMTA7I3Ro4LiC3KGdiV8NG6Q/8ARgYOEZRZgCHY7fLTU08Fy+DUk9ARCqjgr6xiN3ukO9jd7DV50nBY+yKFfWtgscpyjTgUGB/4O7Ec6nVytQTEJHKqKBv7GlsB7O34cC4gNyi3Elc85YW+wC3AJsFj1Okv2J7BA4E/ph4LtV6NvUERKQyKuib+mFQ7rlBuUU5A+vLHekw6vP8833YZTr7Yq91Is/4e3oGWJh6EiJSGRX0Td2JdaDyNoa8d3Svxu6oXxc8zqexHeO5taCtxCzgZOy99OmUu0UrxBzlFJEgKujti1qlTwrKLcqjwDkFjHMc1iimXi0FfoDt7h+Nvc54OemMNrUU+G7qSYhI5VTQ23c1dnGItzHAwQG5RbqIYnZwn0L8e/symI5tmhyI7ZD/ITAv5YQ2OBl4NfUkRKRy/wcAAP//7d15lF1VlcfxLysoEkjCjASWTIEYAxgmRSaRSWQQIQxBbcQBEBAQcFzYQqtNg9i2DC0oSqMoOACKgIjI1CIIiIwBAiaQZgxEQ0JIoCGk/9hVTVlWql5VvXPOvfd9P2u9lQDJ3ZsE8qt7z7lnG+h9e5l0719/OdF1c1kM7E+ad/Z7+xSdEerdfgt8GliXOKzmOGL3f27/AlxWoK6kYTDQl+xbpFkv3pG4U6+zvxJr3a9lqPUp4ourJq6p92ca8d/grsTrfHsB5wL3JK57NHBy4hqSEli6dAMVNgu4BJiS4NonEY9X6+wPwJeAUzLUOhRYhjiKdlGGelWzALiy69NtAjHi9K3Ee/xrEXMD1gJGDaHG74EjgKnDaVRSOQZ6/75JmkDflTh0JMUc9pxOBbYHdstQ62AiqA4g/U77OniQJb+NMYYI9u7PWOJEvlHEyYWjiCceM4md99f3cy1JNWGg9+8OYg1zlwTX/jqwXYLr5rSYmDh2N7B2hnr7AJcDk0kz7rYp5nZ9vNuWOohr6ANLtYltW2D3RNfO6XliKteLmertDtxMzFSXJHXxDn1gfyQOm0mx5n0q8OsE183tQeLu+Tfk+SJxc+BO4snJwxnqqX1uLFx/boGaTxJvDpRyX6G6FxLLPyXcXqhuUZ22c3iotiLdevdBwE8SXTu3o4EzM9abC+xJ3LFLUkcbUbqBmngCeCewQYJrbw6cTaxH193twGrEXPAc3kTsfP8bHfoVuSR1M9Bb9wBweILrrkg8krszwbVL+DXxRGNcxprvI17fuhp4JWNdSaoMH7kPzpXAHgmuO4t4l7gpO7dHAtcRwZ7Tg8DewCOZ60pSce5yH5xUg0lWJ05Ea4oFxLv2f85cdwLxpGPfzHUlqTjv0AfvcuD9Ca77N+Jd7vkJrl3KGGIz4YQCtS8AjgXmFagtSdl5hz54qd5LX4mYcNUkc4npciUegR9C7HvYvkBtScrOQB+8e4BLE137kETXLek5IlRnFKi9JnAT8I0CtSUpKwN9aFIF+iRi13vTPENMmJtWqP4JwEPEK4KS1EgG+uBtSbpZ6QBvSXjtkmYRx92WOl98PHAbMR3ujYV6kKRkDPTB2Ra4AVg+YY2hjL6si9nEQJpSoT4C+CJwL96tS2oYA711WwO/BZZLXOf5xNcvbQ4R6rlfaetpPPAn4AyaucQhqQP52lprdiBOQFs2cZ1XiTv0phww05/RxEE9pUfIvgB8jRhnK0m15R36wHYiHrOnDnOISVSdEOYQ74fvCPy4cB+jgNOAmcCH8YtcSTVloPdvF+CqjPXOz1irCl4lQvQE4LXCvbyFGPd4LzAF/9+QVDPejSxZd5i/IVO9e4FNKR9spewM/IK0Gw4H42FiR/yPgEWFe5GkARnofdsL+FXGei8SYd7pQ0U2Aq4gBtVUxePAvwE/JH6fNDw7dH1KOblg7U7zGcp9gX4f6c4LqSwD/R/tDfwyc83dgGsy16yqFYj/EXcs3Ugvc4klkTOI9XYNzcnASQXrr0D8Xiq9Z4jBUyVcBHyoUO1iXCf8e/sAl2Ss9wqwJ4Z5T88TGxFPL91IL2OA44DHiKWY3Yp2I0m9GOiv2wf4ObB0pnqvELPVc266q5PPAZOBhaUb6cPuwNXEOvtxxCt4klSUgR6mEGE+IlO9l4kwvzZTvbq6jDhqt6qPuDcAvgk8DZwHbFy2HUmdzECPML+IvGG+G4Z5q6YCmxCvlFXVSOATxJsK9wFfIQbtSFI2nR7oBxNhnmtz4EIizG/MVK8p5hG/V/sS41irbCPgn4G7gEeJO3hnsktKrpMD/WDgAvKG+c4Y5sPxC15/ta0O1iHW2G8ijpi9AjgGmFCwJ0kN1amBfihlwvyWTPWa7Fng/cQXZHUaZLM88UbDGcADxCs9FwPHAu8o2Jekhsi1o7tKDiXtPPPe5gPvxTBvtwuJ6XffI4KyblYn9m9M6fH3bgH+CNxDrMXfVaAvSTXVaYH+KeCsjPXmEwek3JGxZieZRZzq90HgbOo/CnXrrk9P04D7uz4ziHX5R4En8rYmqeo6KdBzh/k84jG7YZ7eRcDvgO8AHyjcS7uN7/pM7uOfPQL8D7EM0fszb4DrLiReB3ymbZ1KKqpTAv0z5D15bB7wbuDujDU73bPE4UD7AWcCa5RtJ4sNuj7D8VfgOuKLoeuH3ZGkYjphU1zuMJ+DYV7SJcB6wInEkof6tzJwABHqF1GdaXeSBqnpgf5l8of5dhjmpb1EjD5dl7wbIOvuIOB2YK3SjUgavCYH+unAv2SsN5sI86kZa6p/s4HDgQ2pz7vrpU0Afo+hLtVOUwP9dOJRey6zgW0xzKvqEeLd9c2I0biLy7ZTeesQ5zRIqpEmBnruMJ9FhPm0jDU1NHcRG+cmEafOacl2onoz6SX1o2mBfhb5w3xrDPO6uZc4F/7txEQ39e3g0g1Ial2TAv0s4l3zXJ4kwnxGxppqr3uJ97vXB86hmrPXS9q9dAOSWteUQP8u+cN8GwzzppgBHEm8u/4F4vdXsCpujpNqo+6BvhQR5odmrNkd5jMz1lQec4HTiBA7GPhD2XYqYf3SDUhqTZ0DfSliJ27OMJ+JYd4pLiQ2O74V+Bbwt7LtFPNq6QYktabOgX4eeTftTMcw70TTiJnmKxNDYH5ftp3sni7dgKTW1DXQTwU+nrHedGB7XFvtdBcT/x2MBY4hjktt8h3sc7hPRKqNOgb6lsDnM9abQdyZP5WxpqrtaeKtip15/c79MmBByaYSuKp0A5JaV8dA/3rGWg8RYT4rY03Vyzzizn0ysAKwA/CvwG3AonJttcWppRuQ1Lq6BfpqxCSzHKYRZ7M7L1qtegW4CfgSsBVx9z4Z+E/ggYJ9DcX5eGCSVCt1m4e+G7G7PbWpxJ3W7Ay11FxziUfx3afRjSEOI+r+vINqjiu9i7znOkhqg7oF+kYZatxHhHmnvqakdOYCV3d9um0KbA5MBLYgjqMdlb+1/3crsBeemifVTt0CfcXE17+bGEgxJ3EdqdtdXZ+e1icCflNgbeKgm+5PqrB/Evhm10dSDdUt0F9KeO3pwHuA5xPWkFoxvevzqz7+2XLEeNM3E0ezrkSs1a/c4/ujgZHAsl2f7u/3/mJgBnGe/fk4L16qvRzr0e10LHFqVwqvAO8C7kx0fUmSkqnbLveUp3S9AbicuMORJKlW6hbofwYeTXj9NYGfJry+JElJjCjdwBDMAvZLeP31gDcC1yesIUlSW9Ux0O8n1rrHJayxHfAn4JGENSRJapu6bYrrtgZxLOvohDXmAZNI+4hfkqS2qNsaerengSMS1xgN/JJ43UeSpEqr4yP3bvcBGwIbJ6yxOvBW4GcJa0iSNGx1DnSA3wAHkPZVs7cRM69TvjInSdKw1HUNvaeJxAa2NyWssRjYg78/g1uSpMqo6xp6T1OBYxLXWIp47D4+cR1JkoakCXfo3S4GpiSuMQPYjJiaJUlSZTQp0JcjplZtkLjONcRcdkmSKqMJj9y7vQjsQ9qJbADvBS5IXEOSpEGp+y733p4DZgN7Jq4zCfhf4ObEdSRJaknTAh1i/OnErk9KOwEPE0fRSpJUVJPW0HsaCdwGbJSh1nuAGzPUqZutiF+b8cBY4snJ48QeBAffqJOMAjYvWP8B4NmC9ZVJUwMdYH1i3GrK894BXiDC64HEdepiX+AbwLr9/JiHgdOA87N0JJW1JXB7wfofJN4CUsM1aVNcb9OBycShMCmNAn5LHBPbyd4I/AS4lP7DHOLI3u8TXwTtm7gvSeoITQ50gN8BJ2eosyZwLTAmQ60qGg3cABw4yJ83gfgC4E/EngRJ0hA1PdABvkoEe2obA9cBy2eoVSWjgZuArYdxjc2J36NrgU3b0ZQkdZpOCPTFwH7EI/jUNidCKeW58lWyIhHmk9p0vZ2JfQ+XAOPadE1J6gidEOgQR7XuDSzMUGsr4MoMdUpbkXjM3q4w72ky8AjwHWI5Q5I0gE4JdIghLh/JVGsn4JeZapWwKvDfwNsT1zkMeAI4G1gtcS1JqrVOCnSAnwMnZqq1N7Hru2m/xqsQs+FzvOPf7ShiMM4pwAoZ60pSbTQtbFpxCvCDTLUOBH5Mc07kW5047rbEGNnlgC8CjxFflI0s0IMkVVYnBjrAIeRb555ChHrdrQH8gfIz4ccAXyOC/Whg2aLdSFJFdGqgAxxA7KjO4UDiC4ilM9VrtzWBW4nT96piVeBMYo39a11/LUkdq5MDfSExCnVmpnp7EBvl3pCpXrusTdyZr126kSVYiXgE/zhx+lzpJwiSVEQnBzrEwJCdgTmZ6u0BXAUsk6necFU9zHtaBvgY8CBwNZ48J6nDdHqgA/yF9PPTe9qFCPWqGwfcQv3eA18K2I04ee4+4BN03ul9kjqQgR5uIe+QkJ2IQ1mWy1hzMDYk7szHlm5kmDYCziNGR34P2LZsO5KUjoH+ul8QYwZTT2frtgPxPnfVDkwZTxwaU7W+hmNZ4OPEr/dDwOdo1r+fJBnovVwMHJmx3qbEnfA6GWv2ZwIR5k0eBTuemMU+C7gC2KdsO5LUHgb6PzoX+HTGeuOA24hpbSVNpHl35gPZE7gMeAH4GXFmgOvtkmrJQO/bGcBXMtZbjbhT3yZjzZ4mEY+jVylUv7Tlgf2JJzSziTMDPka8EidJtWCgL9lJwH9krDeKOFY15+Y8gM2IO/MVM9etqmWI1wu/D/wVuBE4BlirYE+SNCADvX/HEyM8c7oUOCJTrXcA1xNfTKhv7yae2DwO3AF8iViekKRKMdAH9kngR5lrfpsYGZrSO4l3tcckrtPTMxlrpbAF8FXgfuBh4OvEr6MkFWegt+afyD9g5ShiXT3FuvY2RJjnvDP/HDHg5TDgqYx1U9kA+CzwR+BJ4Bxg16IdSepoBnrrPgxckLnm1sBdxDp3u2wPXEPe3dzHAad3ff884vS5Y4kDX5pgLPEk5xriGOETyrYjqRMZ6IPzUWKzVE5rAXcSh94M13uIc85znlB3NPCtPv7+mcT77sfQnGAHWAH4BnG87+jCvUjqIAb64H2C/BvlIB75//swfv7ORMiMbE87LTmKgfcCnEUE+5HUf429p92Jx/FNPqRHUoUY6EPzSdJvWuvL8cC1DP796Pd1/bxl297Rkh1GbO5r1TnEGvsRxJp0E0wArivdhKTOYKAP3dHkfU+9287EFLHtWvzxewK/TtdOnw4l1sqH4lximeHjwGPtaqigicRTHUlKykAfnuOJ9dLcxhLT2r5IjAtdkj2IoTO5LAY+Qkw2G67ziWNxpwB/bsP1Svp86QYkNZ+BPnyfBU4pUHdEV92rgVX7+Of7EkeYLp2xp4OBH7bxeouAnwKbEyNn6zBHvi/jiHfYJSkZA709TgQ+U6j2e4G7idfRuh1AnDiX04dIewDP9cTywSbATxLWSWWH0g1Iarb+Htdq8PYnpnaVciLwKHBR5rr7kvfRPsSywwnE5rs6TEj7AXBI6SZUxFjiv9NSLiFON1TDGejtty2d9Q7y/sQfGKWMIp4OHAVsVLCPgVwD7Fa6CUnN5SP39ruZGHryROlGEnuVeAReMswhZpmfS8yT34LYXT+/aEd9G1G6AUnNZqCnMQ3YEphaupFEXgE+QPU2qd1JPNrsPjP+zrLtSFI+Bno6zwDvIuZpN80+VC/Me5pP3KlvAWxKHNc7p2hH8Frh+pIazkBP6wViAlfuSW2pvEz8+1Q5zHu7mzjYZVXiLPszgZkF+vD/NUlJua6X3mvAZcQf6O8u3MtwvY8Yu1pHi4mT535DDIu5AphFHKOb47z1GcCFGepI6lDucs/r/cS72jnnkLfDQuLUuRtKN5LIusSrd3vT+pG6g3UdcWyvJCVhoOc3njjBbVzpRlq0gDi85ubSjWSyChHshxMbG9vFQJeUlOt6+U0jjjK9pnQjLVgI7ELnhDnAbGIT3TmlG5GkwTDQy5hHrEefRKztVtF84o7yltKNSJIGZqCXsxj4ChHs8wr30tt8YEcMc0mqDQO9vGuAzYhH8VUwjwjzO0o30jDuV5GUlIFeDdOJdfUqHKNqmId2L4VUdWlFUkMY6NXxIjHo5JPASwXqzyFGsHpcahreoUtKykCvnu8QR5ZOz1hzDvH+9d0Za0qS2shAr6apwCbABRlqzSbCvKmDZCSpIyxdugEt0QLgo8DVwH8BIxPUmE3Mb6/Khrwm85F7OAT4SMH6exLLW1LjGOjV9zNiXftyYGIbrzuLOFveMFdO6wA7FKzvn3lqLB+510P3Lvhvt+l6s4CtMcwlqTEM9Pp4GTgK2IuYtT5UTxGP2We0o6kGW9Tm6/namqSkDPT6uRLYkHgUP1hTgW2Av7S1I0lScQZ6Pb0AHAgcQ+vHxl4AvJOYCa6BtXsTm5viJCVloNfbWcD6wBeAW4npaD3NAn5AvNf+UdzdOxivVfx6kvR33PFZf7OB07o+AOsRM70fBZ4r1VQDeIcuqVYM9OaZgRve2qHdAezTMElJ+YeMJEkNYKBLktQABrqUh2vokpIy0CVJagADXZKkBjDQpb55VKukWjHQJUlqAANdysNNcZKSMtAlSWoAA12SpAYw0KW+uSlOUq0Y6JIkNYCBLuXhpjhJSRnokiQ1gIEuSVIDGOiSJDWAgS71bVGbrzcG2BhYuc3XlSQAli7dgFRR7X5tbRPg3h5//RjwFDAPmN/1ebHHty8CC3p9/6U29rMAmAnMauM1JRVkoEt9S/30ap2uT2nPAr8DzgZuLdyLpGHwkbvU2VYDPgjcAnwfGFW2HUlDZaBL6vYxYBqwaelGJA2egS6ppzWAq4BVSzciaXBcQ5fU2xrAmcBBCa79GHBjguu26tWCtaWkPI5S6ttBwEWlmyhsEnBP6SYktcZH7lLf/GIXDivdgKTWGehS33w0C/uVbkBS6wx0qW/PlW6gAlYD3ly6CUmtMdClvj1UuoGKWK90A5JaY6BLfXsamFG6iQpYULoBSa0x0KUlu6B0AxXweOkGJLXGnbzSko0BHgVWLN1IIQ8AE0s3Iak13qFLSzYXOLJ0EwX9qnQDklo3onQDUsXdDywPbF26kcxeIl5bW1i6EUmtMdClgV1LzCnftXQjGZ1IjFWVVBMGutSaW4FLgdWBtxXuJbVLgE+XbkLS4LgpThq8lYG9gbd0fX8rYIuiHbXPd4HDSzchafAMdKl9NiZ2hW9I3MmvDKwCrAOsX66tlswEjgcuK92IpKEx0KV8xgFrAysRr8KtSGy4W9Tjx4wAVujxGd3j29FdP3ew5hEHxCzs+nYB8ALxjvnDwA3EkoKkGvs/nyNpO9Vh21IAAAAASUVORK5CYII=;" parent="1" vertex="1">
          <mxGeometry x="347" y="420" width="78" height="78" as="geometry" />
        </mxCell>
        <mxCell id="5VA00lFqFto38derzU0V-41" value="" style="sketch=0;points=[[0,0,0],[0.25,0,0],[0.5,0,0],[0.75,0,0],[1,0,0],[0,1,0],[0.25,1,0],[0.5,1,0],[0.75,1,0],[1,1,0],[0,0.25,0],[0,0.5,0],[0,0.75,0],[1,0.25,0],[1,0.5,0],[1,0.75,0]];outlineConnect=0;fontColor=#232F3E;gradientColor=#FF4F8B;gradientDirection=north;fillColor=#BC1356;strokeColor=#ffffff;dashed=0;verticalLabelPosition=bottom;verticalAlign=top;align=center;html=1;fontSize=12;fontStyle=0;aspect=fixed;shape=mxgraph.aws4.resourceIcon;resIcon=mxgraph.aws4.sns;" parent="1" vertex="1">
          <mxGeometry x="611" y="420" width="78" height="78" as="geometry" />
        </mxCell>
        <mxCell id="5VA00lFqFto38derzU0V-42" style="edgeStyle=orthogonalEdgeStyle;rounded=0;orthogonalLoop=1;jettySize=auto;html=1;exitX=0.5;exitY=1;exitDx=0;exitDy=0;entryX=0.5;entryY=0;entryDx=0;entryDy=0;entryPerimeter=0;" parent="1" source="5VA00lFqFto38derzU0V-36" target="5VA00lFqFto38derzU0V-41" edge="1">
          <mxGeometry relative="1" as="geometry" />
        </mxCell>
        <mxCell id="lGOflUzZZDWIZayTTF5Y-13" value="" style="group" vertex="1" connectable="0" parent="1">
          <mxGeometry x="210" y="420" width="70" height="95" as="geometry" />
        </mxCell>
        <mxCell id="lGOflUzZZDWIZayTTF5Y-1" value="" style="triangle;whiteSpace=wrap;html=1;rotation=90;strokeWidth=3;" vertex="1" parent="lGOflUzZZDWIZayTTF5Y-13">
          <mxGeometry x="12.5" y="22.5" width="45" height="70" as="geometry" />
        </mxCell>
        <mxCell id="lGOflUzZZDWIZayTTF5Y-2" value="" style="html=1;verticalLabelPosition=bottom;labelBackgroundColor=#ffffff;verticalAlign=top;shadow=0;dashed=0;strokeWidth=3;shape=mxgraph.ios7.misc.circle;strokeColor=#222222;fillColor=none;" vertex="1" parent="lGOflUzZZDWIZayTTF5Y-13">
          <mxGeometry x="4.5" width="12" height="12" as="geometry" />
        </mxCell>
        <mxCell id="lGOflUzZZDWIZayTTF5Y-3" value="" style="html=1;verticalLabelPosition=bottom;labelBackgroundColor=#ffffff;verticalAlign=top;shadow=0;dashed=0;strokeWidth=3;shape=mxgraph.ios7.misc.circle;strokeColor=#222222;fillColor=none;" vertex="1" parent="lGOflUzZZDWIZayTTF5Y-13">
          <mxGeometry x="29" width="12" height="12" as="geometry" />
        </mxCell>
        <mxCell id="lGOflUzZZDWIZayTTF5Y-4" value="" style="html=1;verticalLabelPosition=bottom;labelBackgroundColor=#ffffff;verticalAlign=top;shadow=0;dashed=0;strokeWidth=3;shape=mxgraph.ios7.misc.circle;strokeColor=#222222;fillColor=none;" vertex="1" parent="lGOflUzZZDWIZayTTF5Y-13">
          <mxGeometry x="54.5" width="12" height="12" as="geometry" />
        </mxCell>
        <mxCell id="lGOflUzZZDWIZayTTF5Y-6" value="" style="endArrow=none;html=1;rounded=0;entryX=0.5;entryY=1;entryDx=0;entryDy=0;entryPerimeter=0;strokeWidth=3;" edge="1" parent="lGOflUzZZDWIZayTTF5Y-13" target="lGOflUzZZDWIZayTTF5Y-2">
          <mxGeometry width="50" height="50" relative="1" as="geometry">
            <mxPoint x="10.5" y="20" as="sourcePoint" />
            <mxPoint x="90.5" y="-40" as="targetPoint" />
          </mxGeometry>
        </mxCell>
        <mxCell id="lGOflUzZZDWIZayTTF5Y-7" value="" style="endArrow=none;html=1;rounded=0;strokeWidth=3;" edge="1" parent="lGOflUzZZDWIZayTTF5Y-13">
          <mxGeometry width="50" height="50" relative="1" as="geometry">
            <mxPoint x="20.5" y="20" as="sourcePoint" />
            <mxPoint x="10.5" y="20" as="targetPoint" />
          </mxGeometry>
        </mxCell>
        <mxCell id="lGOflUzZZDWIZayTTF5Y-8" value="" style="endArrow=none;html=1;rounded=0;exitX=0.002;exitY=0.705;exitDx=0;exitDy=0;exitPerimeter=0;strokeWidth=3;" edge="1" parent="lGOflUzZZDWIZayTTF5Y-13" source="lGOflUzZZDWIZayTTF5Y-1">
          <mxGeometry width="50" height="50" relative="1" as="geometry">
            <mxPoint x="10.5" y="50" as="sourcePoint" />
            <mxPoint x="20.5" y="20" as="targetPoint" />
          </mxGeometry>
        </mxCell>
        <mxCell id="lGOflUzZZDWIZayTTF5Y-9" value="" style="endArrow=none;html=1;rounded=0;strokeWidth=3;" edge="1" parent="lGOflUzZZDWIZayTTF5Y-13">
          <mxGeometry width="50" height="50" relative="1" as="geometry">
            <mxPoint x="52.75999999999999" y="20" as="sourcePoint" />
            <mxPoint x="60.5" y="20" as="targetPoint" />
          </mxGeometry>
        </mxCell>
        <mxCell id="lGOflUzZZDWIZayTTF5Y-10" value="" style="endArrow=none;html=1;rounded=0;entryX=0.5;entryY=1;entryDx=0;entryDy=0;entryPerimeter=0;strokeWidth=3;" edge="1" parent="lGOflUzZZDWIZayTTF5Y-13" target="lGOflUzZZDWIZayTTF5Y-4">
          <mxGeometry width="50" height="50" relative="1" as="geometry">
            <mxPoint x="60.5" y="20" as="sourcePoint" />
            <mxPoint x="42.75999999999999" y="12" as="targetPoint" />
          </mxGeometry>
        </mxCell>
        <mxCell id="lGOflUzZZDWIZayTTF5Y-11" value="" style="endArrow=none;html=1;rounded=0;exitX=0.002;exitY=0.705;exitDx=0;exitDy=0;exitPerimeter=0;strokeWidth=3;" edge="1" parent="lGOflUzZZDWIZayTTF5Y-13">
          <mxGeometry width="50" height="50" relative="1" as="geometry">
            <mxPoint x="52.75999999999999" y="35" as="sourcePoint" />
            <mxPoint x="52.75999999999999" y="20" as="targetPoint" />
          </mxGeometry>
        </mxCell>
        <mxCell id="lGOflUzZZDWIZayTTF5Y-12" value="" style="endArrow=none;html=1;rounded=0;entryX=0.5;entryY=1;entryDx=0;entryDy=0;entryPerimeter=0;exitX=0;exitY=0.5;exitDx=0;exitDy=0;strokeWidth=3;" edge="1" parent="lGOflUzZZDWIZayTTF5Y-13" source="lGOflUzZZDWIZayTTF5Y-1" target="lGOflUzZZDWIZayTTF5Y-3">
          <mxGeometry width="50" height="50" relative="1" as="geometry">
            <mxPoint x="20.5" y="40" as="sourcePoint" />
            <mxPoint x="70.5" y="-10" as="targetPoint" />
          </mxGeometry>
        </mxCell>
      </root>
    </mxGraphModel>
  </diagram>
</mxfile>
